<?xml version="1.0" encoding="utf-8"?>
<!-- Generator: Adobe Illustrator 24.1.0, SVG Export Plug-In . SVG Version: 6.00 Build 0)  -->
<svg version="1.1" id="Layer_1" xmlns="http://www.w3.org/2000/svg" xmlns:xlink="http://www.w3.org/1999/xlink" x="0px" y="0px"
	 viewBox="0 0 1920 1080" style="enable-background:new 0 0 1920 1080;" xml:space="preserve">
<style type="text/css">
	.st0{clip-path:url(#SVGID_2_);}
	.st1{fill:none;stroke:#FFFFFF;stroke-width:2;stroke-linecap:round;stroke-linejoin:round;stroke-miterlimit:10;}
	.st2{opacity:0.71;fill:none;stroke:#FFFFFF;stroke-width:2;stroke-linecap:round;stroke-linejoin:round;stroke-miterlimit:10;}
	.st3{opacity:0.68;fill:none;stroke:#FFFFFF;stroke-width:2;stroke-linecap:round;stroke-linejoin:round;stroke-miterlimit:10;}
	.st4{opacity:0.31;}
	.st5{opacity:0.72;}
	.st6{fill:#FFFFFF;}
	.st7{opacity:0.54;}
	.st8{clip-path:url(#SVGID_4_);}
	.st9{clip-path:url(#SVGID_6_);}
	.st10{opacity:0.29;}
	.st11{clip-path:url(#SVGID_8_);}
</style>
<g>
	<g>
		<g>
			<defs>
				<path id="SVGID_1_" d="M1915.6,1078.8H208.9c-3.5,0-6.3-2.8-6.3-6.3V10.5c0-3.5,2.8-6.3,6.3-6.3h1706.6c3.5,0,6.3,2.8,6.3,6.3
					v1061.9C1921.9,1075.9,1919,1078.8,1915.6,1078.8z"/>
			</defs>
			<clipPath id="SVGID_2_">
				<use xlink:href="#SVGID_1_"  style="overflow:visible;"/>
			</clipPath>
			<g class="st0">
				<circle class="st1" cx="1177.7" cy="304.4" r="16.1"/>
				<path class="st2" d="M1664.4,331.5c0,7.5-6.1,13.5-13.5,13.5s-13.5-6.1-13.5-13.5c0-7.5,6.1-13.5,13.5-13.5
					S1664.4,324,1664.4,331.5z"/>
				<path class="st1" d="M1666.9,591.5c0,8.9-7.2,16.1-16.1,16.1s-16.1-7.2-16.1-16.1c0-8.9,7.2-16.1,16.1-16.1
					S1666.9,582.6,1666.9,591.5z"/>
				<path class="st3" d="M473.6,963.6c0,8.9-7.2,16.1-16.1,16.1c-8.9,0-16.1-7.2-16.1-16.1c0-8.9,7.2-16.1,16.1-16.1
					C466.4,947.5,473.6,954.7,473.6,963.6z"/>
				<circle class="st1" cx="1370.6" cy="963.6" r="16.1"/>
				<path class="st2" d="M1278.3,210.9c10.9,0,10.9,16.1,21.8,16.1c10.9,0,10.9-16.1,21.8-16.1c10.9,0,10.9,16.1,21.8,16.1
					c10.9,0,10.9-16.1,21.8-16.1c10.9,0,10.9,16.1,21.8,16.1c10.9,0,10.9-16.1,21.8-16.1c10.9,0,10.9,16.1,21.8,16.1"/>
				<path class="st1" d="M1677.4,749.9c10.9,0,10.9,16.1,21.8,16.1c10.9,0,10.9-16.1,21.8-16.1c10.9,0,10.9,16.1,21.8,16.1
					c10.9,0,10.9-16.1,21.8-16.1c10.9,0,10.9,16.1,21.8,16.1c10.9,0,10.9-16.1,21.8-16.1c10.9,0,10.9,16.1,21.8,16.1"/>
				<path class="st1" d="M656.9,993.6c10.9,0,10.9,16.1,21.8,16.1c10.9,0,10.9-16.1,21.8-16.1c10.9,0,10.9,16.1,21.8,16.1
					c10.9,0,10.9-16.1,21.8-16.1c10.9,0,10.9,16.1,21.8,16.1c10.9,0,10.9-16.1,21.8-16.1c10.9,0,10.9,16.1,21.8,16.1"/>
				<g>
					<line class="st1" x1="1428.4" y1="424.6" x2="1449" y2="445.2"/>
					<line class="st1" x1="1428.4" y1="445.2" x2="1449" y2="424.6"/>
				</g>
				<g class="st4">
					<line class="st1" x1="1017.6" y1="181.4" x2="1038.2" y2="202.1"/>
					<line class="st1" x1="1017.6" y1="202.1" x2="1038.2" y2="181.4"/>
				</g>
				<g>
					<line class="st1" x1="839.6" y1="883.6" x2="860.2" y2="904.3"/>
					<line class="st1" x1="839.6" y1="904.3" x2="860.2" y2="883.6"/>
				</g>
				<g class="st5">
					<path class="st6" d="M962.6,876.6c0,3.1-2.5,5.6-5.6,5.6c-3.1,0-5.6-2.5-5.6-5.6c0-3.1,2.5-5.6,5.6-5.6
						C960.1,871.1,962.6,873.6,962.6,876.6z"/>
					<path class="st6" d="M995.3,876.6c0,3.1-2.5,5.6-5.6,5.6s-5.6-2.5-5.6-5.6c0-3.1,2.5-5.6,5.6-5.6S995.3,873.6,995.3,876.6z"/>
					<path class="st6" d="M1027.9,876.6c0,3.1-2.5,5.6-5.6,5.6c-3.1,0-5.6-2.5-5.6-5.6c0-3.1,2.5-5.6,5.6-5.6
						C1025.4,871.1,1027.9,873.6,1027.9,876.6z"/>
					<path class="st6" d="M1060.6,876.6c0,3.1-2.5,5.6-5.6,5.6s-5.6-2.5-5.6-5.6c0-3.1,2.5-5.6,5.6-5.6S1060.6,873.6,1060.6,876.6z"
						/>
					<path class="st6" d="M1093.2,876.6c0,3.1-2.5,5.6-5.6,5.6s-5.6-2.5-5.6-5.6c0-3.1,2.5-5.6,5.6-5.6S1093.2,873.6,1093.2,876.6z"
						/>
					<path class="st6" d="M1125.9,876.6c0,3.1-2.5,5.6-5.6,5.6c-3.1,0-5.6-2.5-5.6-5.6c0-3.1,2.5-5.6,5.6-5.6
						C1123.4,871.1,1125.9,873.6,1125.9,876.6z"/>
					<path class="st6" d="M1158.5,876.6c0,3.1-2.5,5.6-5.6,5.6s-5.6-2.5-5.6-5.6c0-3.1,2.5-5.6,5.6-5.6S1158.5,873.6,1158.5,876.6z"
						/>
					<path class="st6" d="M1191.2,876.6c0,3.1-2.5,5.6-5.6,5.6s-5.6-2.5-5.6-5.6c0-3.1,2.5-5.6,5.6-5.6S1191.2,873.6,1191.2,876.6z"
						/>
					<path class="st6" d="M962.6,909.3c0,3.1-2.5,5.6-5.6,5.6c-3.1,0-5.6-2.5-5.6-5.6s2.5-5.6,5.6-5.6
						C960.1,903.7,962.6,906.2,962.6,909.3z"/>
					<path class="st6" d="M995.3,909.3c0,3.1-2.5,5.6-5.6,5.6s-5.6-2.5-5.6-5.6s2.5-5.6,5.6-5.6S995.3,906.2,995.3,909.3z"/>
					<path class="st6" d="M1027.9,909.3c0,3.1-2.5,5.6-5.6,5.6c-3.1,0-5.6-2.5-5.6-5.6s2.5-5.6,5.6-5.6
						C1025.4,903.7,1027.9,906.2,1027.9,909.3z"/>
					<path class="st6" d="M1060.6,909.3c0,3.1-2.5,5.6-5.6,5.6s-5.6-2.5-5.6-5.6s2.5-5.6,5.6-5.6S1060.6,906.2,1060.6,909.3z"/>
					<path class="st6" d="M1093.2,909.3c0,3.1-2.5,5.6-5.6,5.6s-5.6-2.5-5.6-5.6s2.5-5.6,5.6-5.6S1093.2,906.2,1093.2,909.3z"/>
					<path class="st6" d="M1125.9,909.3c0,3.1-2.5,5.6-5.6,5.6c-3.1,0-5.6-2.5-5.6-5.6s2.5-5.6,5.6-5.6
						C1123.4,903.7,1125.9,906.2,1125.9,909.3z"/>
					<path class="st6" d="M1158.5,909.3c0,3.1-2.5,5.6-5.6,5.6s-5.6-2.5-5.6-5.6s2.5-5.6,5.6-5.6S1158.5,906.2,1158.5,909.3z"/>
					<path class="st6" d="M1191.2,909.3c0,3.1-2.5,5.6-5.6,5.6s-5.6-2.5-5.6-5.6s2.5-5.6,5.6-5.6S1191.2,906.2,1191.2,909.3z"/>
					<path class="st6" d="M962.6,941.9c0,3.1-2.5,5.6-5.6,5.6c-3.1,0-5.6-2.5-5.6-5.6s2.5-5.6,5.6-5.6
						C960.1,936.3,962.6,938.8,962.6,941.9z"/>
					<path class="st6" d="M995.3,941.9c0,3.1-2.5,5.6-5.6,5.6s-5.6-2.5-5.6-5.6s2.5-5.6,5.6-5.6S995.3,938.8,995.3,941.9z"/>
					<path class="st6" d="M1027.9,941.9c0,3.1-2.5,5.6-5.6,5.6c-3.1,0-5.6-2.5-5.6-5.6s2.5-5.6,5.6-5.6
						C1025.4,936.3,1027.9,938.8,1027.9,941.9z"/>
					<path class="st6" d="M1060.6,941.9c0,3.1-2.5,5.6-5.6,5.6s-5.6-2.5-5.6-5.6s2.5-5.6,5.6-5.6S1060.6,938.8,1060.6,941.9z"/>
					<path class="st6" d="M1093.2,941.9c0,3.1-2.5,5.6-5.6,5.6s-5.6-2.5-5.6-5.6s2.5-5.6,5.6-5.6S1093.2,938.8,1093.2,941.9z"/>
					<path class="st6" d="M1125.9,941.9c0,3.1-2.5,5.6-5.6,5.6c-3.1,0-5.6-2.5-5.6-5.6s2.5-5.6,5.6-5.6
						C1123.4,936.3,1125.9,938.8,1125.9,941.9z"/>
					<path class="st6" d="M1158.5,941.9c0,3.1-2.5,5.6-5.6,5.6s-5.6-2.5-5.6-5.6s2.5-5.6,5.6-5.6S1158.5,938.8,1158.5,941.9z"/>
					<path class="st6" d="M1191.2,941.9c0,3.1-2.5,5.6-5.6,5.6s-5.6-2.5-5.6-5.6s2.5-5.6,5.6-5.6S1191.2,938.8,1191.2,941.9z"/>
					<path class="st6" d="M962.6,974.6c0,3.1-2.5,5.6-5.6,5.6c-3.1,0-5.6-2.5-5.6-5.6s2.5-5.6,5.6-5.6
						C960.1,969,962.6,971.5,962.6,974.6z"/>
					<path class="st6" d="M995.3,974.6c0,3.1-2.5,5.6-5.6,5.6s-5.6-2.5-5.6-5.6s2.5-5.6,5.6-5.6S995.3,971.5,995.3,974.6z"/>
					<path class="st6" d="M1027.9,974.6c0,3.1-2.5,5.6-5.6,5.6c-3.1,0-5.6-2.5-5.6-5.6s2.5-5.6,5.6-5.6
						C1025.4,969,1027.9,971.5,1027.9,974.6z"/>
					<path class="st6" d="M1060.6,974.6c0,3.1-2.5,5.6-5.6,5.6s-5.6-2.5-5.6-5.6s2.5-5.6,5.6-5.6S1060.6,971.5,1060.6,974.6z"/>
					<path class="st6" d="M1093.2,974.6c0,3.1-2.5,5.6-5.6,5.6s-5.6-2.5-5.6-5.6s2.5-5.6,5.6-5.6S1093.2,971.5,1093.2,974.6z"/>
					<path class="st6" d="M1125.9,974.6c0,3.1-2.5,5.6-5.6,5.6c-3.1,0-5.6-2.5-5.6-5.6s2.5-5.6,5.6-5.6
						C1123.4,969,1125.9,971.5,1125.9,974.6z"/>
					<path class="st6" d="M1158.5,974.6c0,3.1-2.5,5.6-5.6,5.6s-5.6-2.5-5.6-5.6s2.5-5.6,5.6-5.6S1158.5,971.5,1158.5,974.6z"/>
					<path class="st6" d="M1191.2,974.6c0,3.1-2.5,5.6-5.6,5.6s-5.6-2.5-5.6-5.6s2.5-5.6,5.6-5.6S1191.2,971.5,1191.2,974.6z"/>
					<path class="st6" d="M962.6,1007.2c0,3.1-2.5,5.6-5.6,5.6c-3.1,0-5.6-2.5-5.6-5.6s2.5-5.6,5.6-5.6
						C960.1,1001.6,962.6,1004.1,962.6,1007.2z"/>
					<path class="st6" d="M995.3,1007.2c0,3.1-2.5,5.6-5.6,5.6s-5.6-2.5-5.6-5.6s2.5-5.6,5.6-5.6S995.3,1004.1,995.3,1007.2z"/>
					<path class="st6" d="M1027.9,1007.2c0,3.1-2.5,5.6-5.6,5.6c-3.1,0-5.6-2.5-5.6-5.6s2.5-5.6,5.6-5.6
						C1025.4,1001.6,1027.9,1004.1,1027.9,1007.2z"/>
					<path class="st6" d="M1060.6,1007.2c0,3.1-2.5,5.6-5.6,5.6s-5.6-2.5-5.6-5.6s2.5-5.6,5.6-5.6S1060.6,1004.1,1060.6,1007.2z"/>
					<path class="st6" d="M1093.2,1007.2c0,3.1-2.5,5.6-5.6,5.6s-5.6-2.5-5.6-5.6s2.5-5.6,5.6-5.6S1093.2,1004.1,1093.2,1007.2z"/>
					<path class="st6" d="M1125.9,1007.2c0,3.1-2.5,5.6-5.6,5.6c-3.1,0-5.6-2.5-5.6-5.6s2.5-5.6,5.6-5.6
						C1123.4,1001.6,1125.9,1004.1,1125.9,1007.2z"/>
					<path class="st6" d="M1158.5,1007.2c0,3.1-2.5,5.6-5.6,5.6s-5.6-2.5-5.6-5.6s2.5-5.6,5.6-5.6S1158.5,1004.1,1158.5,1007.2z"/>
					<path class="st6" d="M1191.2,1007.2c0,3.1-2.5,5.6-5.6,5.6s-5.6-2.5-5.6-5.6s2.5-5.6,5.6-5.6S1191.2,1004.1,1191.2,1007.2z"/>
				</g>
				<g>
					<path class="st6" d="M1103.9,386.5c0,3.1-2.5,5.6-5.6,5.6c-3.1,0-5.6-2.5-5.6-5.6s2.5-5.6,5.6-5.6
						C1101.4,380.9,1103.9,383.4,1103.9,386.5z"/>
					<path class="st6" d="M1136.5,386.5c0,3.1-2.5,5.6-5.6,5.6s-5.6-2.5-5.6-5.6s2.5-5.6,5.6-5.6S1136.5,383.4,1136.5,386.5z"/>
					<path class="st6" d="M1169.2,386.5c0,3.1-2.5,5.6-5.6,5.6s-5.6-2.5-5.6-5.6s2.5-5.6,5.6-5.6S1169.2,383.4,1169.2,386.5z"/>
					<path class="st6" d="M1201.8,386.5c0,3.1-2.5,5.6-5.6,5.6s-5.6-2.5-5.6-5.6s2.5-5.6,5.6-5.6S1201.8,383.4,1201.8,386.5z"/>
					<path class="st6" d="M1234.5,386.5c0,3.1-2.5,5.6-5.6,5.6s-5.6-2.5-5.6-5.6s2.5-5.6,5.6-5.6S1234.5,383.4,1234.5,386.5z"/>
					<path class="st6" d="M1267.1,386.5c0,3.1-2.5,5.6-5.6,5.6c-3.1,0-5.6-2.5-5.6-5.6s2.5-5.6,5.6-5.6
						C1264.6,380.9,1267.1,383.4,1267.1,386.5z"/>
					<path class="st6" d="M1103.9,419.1c0,3.1-2.5,5.6-5.6,5.6c-3.1,0-5.6-2.5-5.6-5.6c0-3.1,2.5-5.6,5.6-5.6
						C1101.4,413.5,1103.9,416,1103.9,419.1z"/>
					<path class="st6" d="M1136.5,419.1c0,3.1-2.5,5.6-5.6,5.6s-5.6-2.5-5.6-5.6c0-3.1,2.5-5.6,5.6-5.6S1136.5,416,1136.5,419.1z"/>
					<path class="st6" d="M1169.2,419.1c0,3.1-2.5,5.6-5.6,5.6s-5.6-2.5-5.6-5.6c0-3.1,2.5-5.6,5.6-5.6S1169.2,416,1169.2,419.1z"/>
					<path class="st6" d="M1201.8,419.1c0,3.1-2.5,5.6-5.6,5.6s-5.6-2.5-5.6-5.6c0-3.1,2.5-5.6,5.6-5.6S1201.8,416,1201.8,419.1z"/>
					<path class="st6" d="M1234.5,419.1c0,3.1-2.5,5.6-5.6,5.6s-5.6-2.5-5.6-5.6c0-3.1,2.5-5.6,5.6-5.6S1234.5,416,1234.5,419.1z"/>
					<path class="st6" d="M1267.1,419.1c0,3.1-2.5,5.6-5.6,5.6c-3.1,0-5.6-2.5-5.6-5.6c0-3.1,2.5-5.6,5.6-5.6
						C1264.6,413.5,1267.1,416,1267.1,419.1z"/>
					<path class="st6" d="M1103.9,451.8c0,3.1-2.5,5.6-5.6,5.6c-3.1,0-5.6-2.5-5.6-5.6s2.5-5.6,5.6-5.6
						C1101.4,446.2,1103.9,448.7,1103.9,451.8z"/>
					<path class="st6" d="M1136.5,451.8c0,3.1-2.5,5.6-5.6,5.6s-5.6-2.5-5.6-5.6s2.5-5.6,5.6-5.6S1136.5,448.7,1136.5,451.8z"/>
					<path class="st6" d="M1169.2,451.8c0,3.1-2.5,5.6-5.6,5.6s-5.6-2.5-5.6-5.6s2.5-5.6,5.6-5.6S1169.2,448.7,1169.2,451.8z"/>
					<path class="st6" d="M1201.8,451.8c0,3.1-2.5,5.6-5.6,5.6s-5.6-2.5-5.6-5.6s2.5-5.6,5.6-5.6S1201.8,448.7,1201.8,451.8z"/>
					<path class="st6" d="M1234.5,451.8c0,3.1-2.5,5.6-5.6,5.6s-5.6-2.5-5.6-5.6s2.5-5.6,5.6-5.6S1234.5,448.7,1234.5,451.8z"/>
					<path class="st6" d="M1267.1,451.8c0,3.1-2.5,5.6-5.6,5.6c-3.1,0-5.6-2.5-5.6-5.6s2.5-5.6,5.6-5.6
						C1264.6,446.2,1267.1,448.7,1267.1,451.8z"/>
					<path class="st6" d="M1103.9,484.4c0,3.1-2.5,5.6-5.6,5.6c-3.1,0-5.6-2.5-5.6-5.6s2.5-5.6,5.6-5.6
						C1101.4,478.8,1103.9,481.3,1103.9,484.4z"/>
					<path class="st6" d="M1136.5,484.4c0,3.1-2.5,5.6-5.6,5.6s-5.6-2.5-5.6-5.6s2.5-5.6,5.6-5.6S1136.5,481.3,1136.5,484.4z"/>
					<path class="st6" d="M1169.2,484.4c0,3.1-2.5,5.6-5.6,5.6s-5.6-2.5-5.6-5.6s2.5-5.6,5.6-5.6S1169.2,481.3,1169.2,484.4z"/>
					<path class="st6" d="M1201.8,484.4c0,3.1-2.5,5.6-5.6,5.6s-5.6-2.5-5.6-5.6s2.5-5.6,5.6-5.6S1201.8,481.3,1201.8,484.4z"/>
					<path class="st6" d="M1234.5,484.4c0,3.1-2.5,5.6-5.6,5.6s-5.6-2.5-5.6-5.6s2.5-5.6,5.6-5.6S1234.5,481.3,1234.5,484.4z"/>
					<path class="st6" d="M1267.1,484.4c0,3.1-2.5,5.6-5.6,5.6c-3.1,0-5.6-2.5-5.6-5.6s2.5-5.6,5.6-5.6
						C1264.6,478.8,1267.1,481.3,1267.1,484.4z"/>
					<path class="st6" d="M1103.9,517.1c0,3.1-2.5,5.6-5.6,5.6c-3.1,0-5.6-2.5-5.6-5.6s2.5-5.6,5.6-5.6
						C1101.4,511.5,1103.9,514,1103.9,517.1z"/>
					<path class="st6" d="M1136.5,517.1c0,3.1-2.5,5.6-5.6,5.6s-5.6-2.5-5.6-5.6s2.5-5.6,5.6-5.6S1136.5,514,1136.5,517.1z"/>
					<path class="st6" d="M1169.2,517.1c0,3.1-2.5,5.6-5.6,5.6s-5.6-2.5-5.6-5.6s2.5-5.6,5.6-5.6S1169.2,514,1169.2,517.1z"/>
					<path class="st6" d="M1201.8,517.1c0,3.1-2.5,5.6-5.6,5.6s-5.6-2.5-5.6-5.6s2.5-5.6,5.6-5.6S1201.8,514,1201.8,517.1z"/>
					<path class="st6" d="M1234.5,517.1c0,3.1-2.5,5.6-5.6,5.6s-5.6-2.5-5.6-5.6s2.5-5.6,5.6-5.6S1234.5,514,1234.5,517.1z"/>
					<path class="st6" d="M1267.1,517.1c0,3.1-2.5,5.6-5.6,5.6c-3.1,0-5.6-2.5-5.6-5.6s2.5-5.6,5.6-5.6
						C1264.6,511.5,1267.1,514,1267.1,517.1z"/>
				</g>
				<g>
					<path class="st6" d="M1876.2,212.1c-3.1,0-5.6-2.5-5.6-5.6c0-3.1,2.5-5.6,5.6-5.6s5.6,2.5,5.6,5.6
						C1881.8,209.6,1879.3,212.1,1876.2,212.1z"/>
					<path class="st6" d="M1876.2,244.7c-3.1,0-5.6-2.5-5.6-5.6s2.5-5.6,5.6-5.6s5.6,2.5,5.6,5.6S1879.3,244.7,1876.2,244.7z"/>
					<path class="st6" d="M1876.2,277.4c-3.1,0-5.6-2.5-5.6-5.6c0-3.1,2.5-5.6,5.6-5.6s5.6,2.5,5.6,5.6
						C1881.8,274.9,1879.3,277.4,1876.2,277.4z"/>
					<path class="st6" d="M1876.2,310c-3.1,0-5.6-2.5-5.6-5.6s2.5-5.6,5.6-5.6s5.6,2.5,5.6,5.6S1879.3,310,1876.2,310z"/>
					<path class="st6" d="M1876.2,342.7c-3.1,0-5.6-2.5-5.6-5.6c0-3.1,2.5-5.6,5.6-5.6s5.6,2.5,5.6,5.6
						C1881.8,340.2,1879.3,342.7,1876.2,342.7z"/>
					<path class="st6" d="M1876.2,375.3c-3.1,0-5.6-2.5-5.6-5.6s2.5-5.6,5.6-5.6s5.6,2.5,5.6,5.6S1879.3,375.3,1876.2,375.3z"/>
					<path class="st6" d="M1876.2,408c-3.1,0-5.6-2.5-5.6-5.6s2.5-5.6,5.6-5.6s5.6,2.5,5.6,5.6S1879.3,408,1876.2,408z"/>
					<path class="st6" d="M1876.2,440.6c-3.1,0-5.6-2.5-5.6-5.6c0-3.1,2.5-5.6,5.6-5.6s5.6,2.5,5.6,5.6
						C1881.8,438.1,1879.3,440.6,1876.2,440.6z"/>
					<path class="st6" d="M1843.6,212.1c-3.1,0-5.6-2.5-5.6-5.6c0-3.1,2.5-5.6,5.6-5.6s5.6,2.5,5.6,5.6
						C1849.1,209.6,1846.6,212.1,1843.6,212.1z"/>
					<path class="st6" d="M1843.6,244.7c-3.1,0-5.6-2.5-5.6-5.6s2.5-5.6,5.6-5.6s5.6,2.5,5.6,5.6S1846.6,244.7,1843.6,244.7z"/>
					<path class="st6" d="M1843.6,277.4c-3.1,0-5.6-2.5-5.6-5.6c0-3.1,2.5-5.6,5.6-5.6s5.6,2.5,5.6,5.6
						C1849.1,274.9,1846.6,277.4,1843.6,277.4z"/>
					<path class="st6" d="M1843.6,310c-3.1,0-5.6-2.5-5.6-5.6s2.5-5.6,5.6-5.6s5.6,2.5,5.6,5.6S1846.6,310,1843.6,310z"/>
					<path class="st6" d="M1843.6,342.7c-3.1,0-5.6-2.5-5.6-5.6c0-3.1,2.5-5.6,5.6-5.6s5.6,2.5,5.6,5.6
						C1849.1,340.2,1846.6,342.7,1843.6,342.7z"/>
					<path class="st6" d="M1843.6,375.3c-3.1,0-5.6-2.5-5.6-5.6s2.5-5.6,5.6-5.6s5.6,2.5,5.6,5.6S1846.6,375.3,1843.6,375.3z"/>
					<path class="st6" d="M1843.6,408c-3.1,0-5.6-2.5-5.6-5.6s2.5-5.6,5.6-5.6s5.6,2.5,5.6,5.6S1846.6,408,1843.6,408z"/>
					<path class="st6" d="M1843.6,440.6c-3.1,0-5.6-2.5-5.6-5.6c0-3.1,2.5-5.6,5.6-5.6s5.6,2.5,5.6,5.6
						C1849.1,438.1,1846.6,440.6,1843.6,440.6z"/>
					<path class="st6" d="M1810.9,212.1c-3.1,0-5.6-2.5-5.6-5.6c0-3.1,2.5-5.6,5.6-5.6s5.6,2.5,5.6,5.6
						C1816.5,209.6,1814,212.1,1810.9,212.1z"/>
					<path class="st6" d="M1810.9,244.7c-3.1,0-5.6-2.5-5.6-5.6s2.5-5.6,5.6-5.6s5.6,2.5,5.6,5.6S1814,244.7,1810.9,244.7z"/>
					<path class="st6" d="M1810.9,277.4c-3.1,0-5.6-2.5-5.6-5.6c0-3.1,2.5-5.6,5.6-5.6s5.6,2.5,5.6,5.6
						C1816.5,274.9,1814,277.4,1810.9,277.4z"/>
					<path class="st6" d="M1810.9,310c-3.1,0-5.6-2.5-5.6-5.6s2.5-5.6,5.6-5.6s5.6,2.5,5.6,5.6S1814,310,1810.9,310z"/>
					<path class="st6" d="M1810.9,342.7c-3.1,0-5.6-2.5-5.6-5.6c0-3.1,2.5-5.6,5.6-5.6s5.6,2.5,5.6,5.6
						C1816.5,340.2,1814,342.7,1810.9,342.7z"/>
					<path class="st6" d="M1810.9,375.3c-3.1,0-5.6-2.5-5.6-5.6s2.5-5.6,5.6-5.6s5.6,2.5,5.6,5.6S1814,375.3,1810.9,375.3z"/>
					<path class="st6" d="M1810.9,408c-3.1,0-5.6-2.5-5.6-5.6s2.5-5.6,5.6-5.6s5.6,2.5,5.6,5.6S1814,408,1810.9,408z"/>
					<path class="st6" d="M1810.9,440.6c-3.1,0-5.6-2.5-5.6-5.6c0-3.1,2.5-5.6,5.6-5.6s5.6,2.5,5.6,5.6
						C1816.5,438.1,1814,440.6,1810.9,440.6z"/>
					<path class="st6" d="M1778.3,212.1c-3.1,0-5.6-2.5-5.6-5.6c0-3.1,2.5-5.6,5.6-5.6s5.6,2.5,5.6,5.6
						C1783.9,209.6,1781.4,212.1,1778.3,212.1z"/>
					<path class="st6" d="M1778.3,244.7c-3.1,0-5.6-2.5-5.6-5.6s2.5-5.6,5.6-5.6s5.6,2.5,5.6,5.6S1781.4,244.7,1778.3,244.7z"/>
					<path class="st6" d="M1778.3,277.4c-3.1,0-5.6-2.5-5.6-5.6c0-3.1,2.5-5.6,5.6-5.6s5.6,2.5,5.6,5.6
						C1783.9,274.9,1781.4,277.4,1778.3,277.4z"/>
					<path class="st6" d="M1778.3,310c-3.1,0-5.6-2.5-5.6-5.6s2.5-5.6,5.6-5.6s5.6,2.5,5.6,5.6S1781.4,310,1778.3,310z"/>
					<path class="st6" d="M1778.3,342.7c-3.1,0-5.6-2.5-5.6-5.6c0-3.1,2.5-5.6,5.6-5.6s5.6,2.5,5.6,5.6
						C1783.9,340.2,1781.4,342.7,1778.3,342.7z"/>
					<path class="st6" d="M1778.3,375.3c-3.1,0-5.6-2.5-5.6-5.6s2.5-5.6,5.6-5.6s5.6,2.5,5.6,5.6S1781.4,375.3,1778.3,375.3z"/>
					<path class="st6" d="M1778.3,408c-3.1,0-5.6-2.5-5.6-5.6s2.5-5.6,5.6-5.6s5.6,2.5,5.6,5.6S1781.4,408,1778.3,408z"/>
					<path class="st6" d="M1778.3,440.6c-3.1,0-5.6-2.5-5.6-5.6c0-3.1,2.5-5.6,5.6-5.6s5.6,2.5,5.6,5.6
						C1783.9,438.1,1781.4,440.6,1778.3,440.6z"/>
					<path class="st6" d="M1745.6,212.1c-3.1,0-5.6-2.5-5.6-5.6c0-3.1,2.5-5.6,5.6-5.6c3.1,0,5.6,2.5,5.6,5.6
						C1751.2,209.6,1748.7,212.1,1745.6,212.1z"/>
					<path class="st6" d="M1745.6,244.7c-3.1,0-5.6-2.5-5.6-5.6s2.5-5.6,5.6-5.6c3.1,0,5.6,2.5,5.6,5.6S1748.7,244.7,1745.6,244.7z"
						/>
					<path class="st6" d="M1745.6,277.4c-3.1,0-5.6-2.5-5.6-5.6c0-3.1,2.5-5.6,5.6-5.6c3.1,0,5.6,2.5,5.6,5.6
						C1751.2,274.9,1748.7,277.4,1745.6,277.4z"/>
					<path class="st6" d="M1745.6,310c-3.1,0-5.6-2.5-5.6-5.6s2.5-5.6,5.6-5.6c3.1,0,5.6,2.5,5.6,5.6S1748.7,310,1745.6,310z"/>
					<path class="st6" d="M1745.6,342.7c-3.1,0-5.6-2.5-5.6-5.6c0-3.1,2.5-5.6,5.6-5.6c3.1,0,5.6,2.5,5.6,5.6
						C1751.2,340.2,1748.7,342.7,1745.6,342.7z"/>
					<path class="st6" d="M1745.6,375.3c-3.1,0-5.6-2.5-5.6-5.6s2.5-5.6,5.6-5.6c3.1,0,5.6,2.5,5.6,5.6S1748.7,375.3,1745.6,375.3z"
						/>
					<path class="st6" d="M1745.6,408c-3.1,0-5.6-2.5-5.6-5.6s2.5-5.6,5.6-5.6c3.1,0,5.6,2.5,5.6,5.6S1748.7,408,1745.6,408z"/>
					<path class="st6" d="M1745.6,440.6c-3.1,0-5.6-2.5-5.6-5.6c0-3.1,2.5-5.6,5.6-5.6c3.1,0,5.6,2.5,5.6,5.6
						C1751.2,438.1,1748.7,440.6,1745.6,440.6z"/>
				</g>
				<g class="st7">
					<path class="st6" d="M1737.6,51c0-3.1,2.5-5.6,5.6-5.6s5.6,2.5,5.6,5.6s-2.5,5.6-5.6,5.6S1737.6,54.1,1737.6,51z"/>
					<path class="st6" d="M1705,51c0-3.1,2.5-5.6,5.6-5.6s5.6,2.5,5.6,5.6s-2.5,5.6-5.6,5.6S1705,54.1,1705,51z"/>
					<path class="st6" d="M1672.3,51c0-3.1,2.5-5.6,5.6-5.6s5.6,2.5,5.6,5.6s-2.5,5.6-5.6,5.6S1672.3,54.1,1672.3,51z"/>
					<path class="st6" d="M1639.7,51c0-3.1,2.5-5.6,5.6-5.6c3.1,0,5.6,2.5,5.6,5.6s-2.5,5.6-5.6,5.6
						C1642.2,56.6,1639.7,54.1,1639.7,51z"/>
					<path class="st6" d="M1607,51c0-3.1,2.5-5.6,5.6-5.6c3.1,0,5.6,2.5,5.6,5.6s-2.5,5.6-5.6,5.6C1609.5,56.6,1607,54.1,1607,51z"
						/>
					<path class="st6" d="M1574.4,51c0-3.1,2.5-5.6,5.6-5.6s5.6,2.5,5.6,5.6s-2.5,5.6-5.6,5.6S1574.4,54.1,1574.4,51z"/>
					<path class="st6" d="M1541.7,51c0-3.1,2.5-5.6,5.6-5.6s5.6,2.5,5.6,5.6s-2.5,5.6-5.6,5.6S1541.7,54.1,1541.7,51z"/>
					<path class="st6" d="M1509.1,51c0-3.1,2.5-5.6,5.6-5.6s5.6,2.5,5.6,5.6s-2.5,5.6-5.6,5.6S1509.1,54.1,1509.1,51z"/>
					<path class="st6" d="M1737.6,18.4c0-3.1,2.5-5.6,5.6-5.6s5.6,2.5,5.6,5.6s-2.5,5.6-5.6,5.6S1737.6,21.4,1737.6,18.4z"/>
					<path class="st6" d="M1705,18.4c0-3.1,2.5-5.6,5.6-5.6s5.6,2.5,5.6,5.6s-2.5,5.6-5.6,5.6S1705,21.4,1705,18.4z"/>
					<path class="st6" d="M1672.3,18.4c0-3.1,2.5-5.6,5.6-5.6s5.6,2.5,5.6,5.6s-2.5,5.6-5.6,5.6S1672.3,21.4,1672.3,18.4z"/>
					<path class="st6" d="M1639.7,18.4c0-3.1,2.5-5.6,5.6-5.6c3.1,0,5.6,2.5,5.6,5.6s-2.5,5.6-5.6,5.6
						C1642.2,24,1639.7,21.4,1639.7,18.4z"/>
					<path class="st6" d="M1607,18.4c0-3.1,2.5-5.6,5.6-5.6c3.1,0,5.6,2.5,5.6,5.6s-2.5,5.6-5.6,5.6C1609.5,24,1607,21.4,1607,18.4z
						"/>
					<path class="st6" d="M1574.4,18.4c0-3.1,2.5-5.6,5.6-5.6s5.6,2.5,5.6,5.6S1583,24,1580,24S1574.4,21.4,1574.4,18.4z"/>
					<path class="st6" d="M1541.7,18.4c0-3.1,2.5-5.6,5.6-5.6s5.6,2.5,5.6,5.6s-2.5,5.6-5.6,5.6S1541.7,21.4,1541.7,18.4z"/>
					<path class="st6" d="M1509.1,18.4c0-3.1,2.5-5.6,5.6-5.6s5.6,2.5,5.6,5.6s-2.5,5.6-5.6,5.6S1509.1,21.4,1509.1,18.4z"/>
					<circle class="st6" cx="1743.2" cy="-14.3" r="5.6"/>
					<path class="st6" d="M1705-14.3c0-3.1,2.5-5.6,5.6-5.6s5.6,2.5,5.6,5.6s-2.5,5.6-5.6,5.6S1705-11.2,1705-14.3z"/>
					<path class="st6" d="M1672.3-14.3c0-3.1,2.5-5.6,5.6-5.6s5.6,2.5,5.6,5.6s-2.5,5.6-5.6,5.6S1672.3-11.2,1672.3-14.3z"/>
					<path class="st6" d="M1639.7-14.3c0-3.1,2.5-5.6,5.6-5.6c3.1,0,5.6,2.5,5.6,5.6s-2.5,5.6-5.6,5.6
						C1642.2-8.7,1639.7-11.2,1639.7-14.3z"/>
					<path class="st6" d="M1607-14.3c0-3.1,2.5-5.6,5.6-5.6c3.1,0,5.6,2.5,5.6,5.6s-2.5,5.6-5.6,5.6C1609.5-8.7,1607-11.2,1607-14.3
						z"/>
					<path class="st6" d="M1574.4-14.3c0-3.1,2.5-5.6,5.6-5.6s5.6,2.5,5.6,5.6s-2.5,5.6-5.6,5.6S1574.4-11.2,1574.4-14.3z"/>
					<path class="st6" d="M1541.7-14.3c0-3.1,2.5-5.6,5.6-5.6s5.6,2.5,5.6,5.6s-2.5,5.6-5.6,5.6S1541.7-11.2,1541.7-14.3z"/>
					<path class="st6" d="M1509.1-14.3c0-3.1,2.5-5.6,5.6-5.6s5.6,2.5,5.6,5.6s-2.5,5.6-5.6,5.6S1509.1-11.2,1509.1-14.3z"/>
					<path class="st6" d="M1737.6-46.9c0-3.1,2.5-5.6,5.6-5.6s5.6,2.5,5.6,5.6c0,3.1-2.5,5.6-5.6,5.6S1737.6-43.8,1737.6-46.9z"/>
					<path class="st6" d="M1705-46.9c0-3.1,2.5-5.6,5.6-5.6s5.6,2.5,5.6,5.6c0,3.1-2.5,5.6-5.6,5.6S1705-43.8,1705-46.9z"/>
					<path class="st6" d="M1672.3-46.9c0-3.1,2.5-5.6,5.6-5.6s5.6,2.5,5.6,5.6c0,3.1-2.5,5.6-5.6,5.6S1672.3-43.8,1672.3-46.9z"/>
					<path class="st6" d="M1639.7-46.9c0-3.1,2.5-5.6,5.6-5.6c3.1,0,5.6,2.5,5.6,5.6c0,3.1-2.5,5.6-5.6,5.6
						C1642.2-41.3,1639.7-43.8,1639.7-46.9z"/>
					<path class="st6" d="M1607-46.9c0-3.1,2.5-5.6,5.6-5.6c3.1,0,5.6,2.5,5.6,5.6c0,3.1-2.5,5.6-5.6,5.6
						C1609.5-41.3,1607-43.8,1607-46.9z"/>
					<path class="st6" d="M1574.4-46.9c0-3.1,2.5-5.6,5.6-5.6s5.6,2.5,5.6,5.6c0,3.1-2.5,5.6-5.6,5.6S1574.4-43.8,1574.4-46.9z"/>
					<path class="st6" d="M1541.7-46.9c0-3.1,2.5-5.6,5.6-5.6s5.6,2.5,5.6,5.6c0,3.1-2.5,5.6-5.6,5.6S1541.7-43.8,1541.7-46.9z"/>
					<path class="st6" d="M1509.1-46.9c0-3.1,2.5-5.6,5.6-5.6s5.6,2.5,5.6,5.6c0,3.1-2.5,5.6-5.6,5.6S1509.1-43.8,1509.1-46.9z"/>
					<path class="st6" d="M1737.6-79.6c0-3.1,2.5-5.6,5.6-5.6s5.6,2.5,5.6,5.6c0,3.1-2.5,5.6-5.6,5.6S1737.6-76.5,1737.6-79.6z"/>
					<path class="st6" d="M1705-79.6c0-3.1,2.5-5.6,5.6-5.6s5.6,2.5,5.6,5.6c0,3.1-2.5,5.6-5.6,5.6S1705-76.5,1705-79.6z"/>
					<path class="st6" d="M1672.3-79.6c0-3.1,2.5-5.6,5.6-5.6s5.6,2.5,5.6,5.6c0,3.1-2.5,5.6-5.6,5.6S1672.3-76.5,1672.3-79.6z"/>
					<path class="st6" d="M1639.7-79.6c0-3.1,2.5-5.6,5.6-5.6c3.1,0,5.6,2.5,5.6,5.6c0,3.1-2.5,5.6-5.6,5.6
						C1642.2-74,1639.7-76.5,1639.7-79.6z"/>
					<path class="st6" d="M1607-79.6c0-3.1,2.5-5.6,5.6-5.6c3.1,0,5.6,2.5,5.6,5.6c0,3.1-2.5,5.6-5.6,5.6
						C1609.5-74,1607-76.5,1607-79.6z"/>
					<path class="st6" d="M1574.4-79.6c0-3.1,2.5-5.6,5.6-5.6s5.6,2.5,5.6,5.6c0,3.1-2.5,5.6-5.6,5.6S1574.4-76.5,1574.4-79.6z"/>
					<path class="st6" d="M1541.7-79.6c0-3.1,2.5-5.6,5.6-5.6s5.6,2.5,5.6,5.6c0,3.1-2.5,5.6-5.6,5.6S1541.7-76.5,1541.7-79.6z"/>
					<path class="st6" d="M1509.1-79.6c0-3.1,2.5-5.6,5.6-5.6s5.6,2.5,5.6,5.6c0,3.1-2.5,5.6-5.6,5.6S1509.1-76.5,1509.1-79.6z"/>
				</g>
				<g class="st7">
					<defs>
						<circle id="SVGID_3_" class="st7" cx="1395.5" cy="693.6" r="152"/>
					</defs>
					<clipPath id="SVGID_4_">
						<use xlink:href="#SVGID_3_"  style="overflow:visible;"/>
					</clipPath>
					<g class="st8">
						<line class="st1" x1="1247.4" y1="437" x2="719.7" y2="964.6"/>
						<line class="st1" x1="1254.4" y1="437" x2="726.7" y2="964.6"/>
						<line class="st1" x1="1261.4" y1="437" x2="733.7" y2="964.6"/>
						<line class="st1" x1="1268.4" y1="437" x2="740.7" y2="964.6"/>
						<line class="st1" x1="1275.4" y1="437" x2="747.7" y2="964.6"/>
						<line class="st1" x1="1282.3" y1="437" x2="754.6" y2="964.6"/>
						<line class="st1" x1="1289.3" y1="437" x2="761.6" y2="964.6"/>
						<line class="st1" x1="1296.3" y1="437" x2="768.6" y2="964.6"/>
						<line class="st1" x1="1303.3" y1="437" x2="775.6" y2="964.6"/>
						<line class="st1" x1="1310.2" y1="437" x2="782.6" y2="964.6"/>
						<line class="st1" x1="1317.2" y1="437" x2="789.5" y2="964.6"/>
						<line class="st1" x1="1324.2" y1="437" x2="796.5" y2="964.6"/>
						<line class="st1" x1="1331.2" y1="437" x2="803.5" y2="964.6"/>
						<line class="st1" x1="1338.2" y1="437" x2="810.5" y2="964.6"/>
						<line class="st1" x1="1345.1" y1="437" x2="817.5" y2="964.6"/>
						<line class="st1" x1="1352.1" y1="437" x2="824.4" y2="964.6"/>
						<line class="st1" x1="1359.1" y1="437" x2="831.4" y2="964.6"/>
						<line class="st1" x1="1366.1" y1="437" x2="838.4" y2="964.6"/>
						<line class="st1" x1="1373.1" y1="437" x2="845.4" y2="964.6"/>
						<line class="st1" x1="1380" y1="437" x2="852.4" y2="964.6"/>
						<line class="st1" x1="1387" y1="437" x2="859.3" y2="964.6"/>
						<line class="st1" x1="1394" y1="437" x2="866.3" y2="964.6"/>
						<line class="st1" x1="1401" y1="437" x2="873.3" y2="964.6"/>
						<line class="st1" x1="1408" y1="437" x2="880.3" y2="964.6"/>
						<line class="st1" x1="1414.9" y1="437" x2="887.2" y2="964.6"/>
						<line class="st1" x1="1421.9" y1="437" x2="894.2" y2="964.6"/>
						<line class="st1" x1="1428.9" y1="437" x2="901.2" y2="964.6"/>
						<line class="st1" x1="1435.9" y1="437" x2="908.2" y2="964.6"/>
						<line class="st1" x1="1442.9" y1="437" x2="915.2" y2="964.6"/>
						<line class="st1" x1="1449.8" y1="437" x2="922.1" y2="964.6"/>
						<line class="st1" x1="1456.8" y1="437" x2="929.1" y2="964.6"/>
						<line class="st1" x1="1463.8" y1="437" x2="936.1" y2="964.6"/>
						<line class="st1" x1="1470.8" y1="437" x2="943.1" y2="964.6"/>
						<line class="st1" x1="1477.7" y1="437" x2="950.1" y2="964.6"/>
						<line class="st1" x1="1484.7" y1="437" x2="957" y2="964.6"/>
						<line class="st1" x1="1491.7" y1="437" x2="964" y2="964.6"/>
						<line class="st1" x1="1498.7" y1="437" x2="971" y2="964.6"/>
						<line class="st1" x1="1505.7" y1="437" x2="978" y2="964.6"/>
						<line class="st1" x1="1512.6" y1="437" x2="985" y2="964.6"/>
						<line class="st1" x1="1519.6" y1="437" x2="991.9" y2="964.6"/>
						<line class="st1" x1="1526.6" y1="437" x2="998.9" y2="964.6"/>
						<line class="st1" x1="1533.6" y1="437" x2="1005.9" y2="964.6"/>
						<line class="st1" x1="1540.6" y1="437" x2="1012.9" y2="964.6"/>
						<line class="st1" x1="1547.5" y1="437" x2="1019.9" y2="964.6"/>
						<line class="st1" x1="1554.5" y1="437" x2="1026.8" y2="964.6"/>
						<line class="st1" x1="1561.5" y1="437" x2="1033.8" y2="964.6"/>
						<line class="st1" x1="1568.5" y1="437" x2="1040.8" y2="964.6"/>
						<line class="st1" x1="1575.5" y1="437" x2="1047.8" y2="964.6"/>
						<line class="st1" x1="1582.4" y1="437" x2="1054.8" y2="964.6"/>
						<line class="st1" x1="1589.4" y1="437" x2="1061.7" y2="964.6"/>
						<line class="st1" x1="1596.4" y1="437" x2="1068.7" y2="964.6"/>
						<line class="st1" x1="1603.4" y1="437" x2="1075.7" y2="964.6"/>
						<line class="st1" x1="1610.4" y1="437" x2="1082.7" y2="964.6"/>
						<line class="st1" x1="1617.3" y1="437" x2="1089.6" y2="964.6"/>
						<line class="st1" x1="1624.3" y1="437" x2="1096.6" y2="964.6"/>
						<line class="st1" x1="1631.3" y1="437" x2="1103.6" y2="964.6"/>
						<line class="st1" x1="1638.3" y1="437" x2="1110.6" y2="964.6"/>
						<line class="st1" x1="1645.3" y1="437" x2="1117.6" y2="964.6"/>
						<line class="st1" x1="1652.2" y1="437" x2="1124.5" y2="964.6"/>
						<line class="st1" x1="1659.2" y1="437" x2="1131.5" y2="964.6"/>
						<line class="st1" x1="1666.2" y1="437" x2="1138.5" y2="964.6"/>
						<line class="st1" x1="1673.2" y1="437" x2="1145.5" y2="964.6"/>
						<line class="st1" x1="1680.1" y1="437" x2="1152.5" y2="964.6"/>
						<line class="st1" x1="1687.1" y1="437" x2="1159.4" y2="964.6"/>
						<line class="st1" x1="1694.1" y1="437" x2="1166.4" y2="964.6"/>
						<line class="st1" x1="1701.1" y1="437" x2="1173.4" y2="964.6"/>
						<line class="st1" x1="1708.1" y1="437" x2="1180.4" y2="964.6"/>
						<line class="st1" x1="1715" y1="437" x2="1187.4" y2="964.6"/>
						<line class="st1" x1="1722" y1="437" x2="1194.3" y2="964.6"/>
						<line class="st1" x1="1729" y1="437" x2="1201.3" y2="964.6"/>
						<line class="st1" x1="1736" y1="437" x2="1208.3" y2="964.6"/>
						<line class="st1" x1="1743" y1="437" x2="1215.3" y2="964.6"/>
						<line class="st1" x1="1749.9" y1="437" x2="1222.3" y2="964.6"/>
						<line class="st1" x1="1756.9" y1="437" x2="1229.2" y2="964.6"/>
						<line class="st1" x1="1763.9" y1="437" x2="1236.2" y2="964.6"/>
						<line class="st1" x1="1770.9" y1="437" x2="1243.2" y2="964.6"/>
						<line class="st1" x1="1777.9" y1="437" x2="1250.2" y2="964.6"/>
						<line class="st1" x1="1784.8" y1="437" x2="1257.1" y2="964.6"/>
						<line class="st1" x1="1791.8" y1="437" x2="1264.1" y2="964.6"/>
						<line class="st1" x1="1798.8" y1="437" x2="1271.1" y2="964.6"/>
						<line class="st1" x1="1805.8" y1="437" x2="1278.1" y2="964.6"/>
						<line class="st1" x1="1812.8" y1="437" x2="1285.1" y2="964.6"/>
						<line class="st1" x1="1819.7" y1="437" x2="1292" y2="964.6"/>
						<line class="st1" x1="1826.7" y1="437" x2="1299" y2="964.6"/>
						<line class="st1" x1="1833.7" y1="437" x2="1306" y2="964.6"/>
						<line class="st1" x1="1840.7" y1="437" x2="1313" y2="964.6"/>
						<line class="st1" x1="1847.7" y1="437" x2="1320" y2="964.6"/>
						<line class="st1" x1="1854.6" y1="437" x2="1326.9" y2="964.6"/>
						<line class="st1" x1="1861.6" y1="437" x2="1333.9" y2="964.6"/>
						<line class="st1" x1="1868.6" y1="437" x2="1340.9" y2="964.6"/>
						<line class="st1" x1="1875.6" y1="437" x2="1347.9" y2="964.6"/>
						<line class="st1" x1="1882.5" y1="437" x2="1354.9" y2="964.6"/>
						<line class="st1" x1="1889.5" y1="437" x2="1361.8" y2="964.6"/>
						<line class="st1" x1="1896.5" y1="437" x2="1368.8" y2="964.6"/>
						<line class="st1" x1="1903.5" y1="437" x2="1375.8" y2="964.6"/>
						<line class="st1" x1="1910.5" y1="437" x2="1382.8" y2="964.6"/>
						<line class="st1" x1="1917.4" y1="437" x2="1389.8" y2="964.6"/>
						<line class="st1" x1="1924.4" y1="437" x2="1396.7" y2="964.6"/>
						<line class="st1" x1="1931.4" y1="437" x2="1403.7" y2="964.6"/>
						<line class="st1" x1="1938.4" y1="437" x2="1410.7" y2="964.6"/>
						<line class="st1" x1="1945.4" y1="437" x2="1417.7" y2="964.6"/>
						<line class="st1" x1="1952.3" y1="437" x2="1424.7" y2="964.6"/>
						<line class="st1" x1="1959.3" y1="437" x2="1431.6" y2="964.6"/>
						<line class="st1" x1="1966.3" y1="437" x2="1438.6" y2="964.6"/>
						<line class="st1" x1="1973.3" y1="437" x2="1445.6" y2="964.6"/>
					</g>
				</g>
				<g>
					<defs>
						
							<ellipse id="SVGID_5_" transform="matrix(0.7071 -0.7071 0.7071 0.7071 320.0054 688.9821)" cx="991.7" cy="-41.8" rx="152" ry="152"/>
					</defs>
					<clipPath id="SVGID_6_">
						<use xlink:href="#SVGID_5_"  style="overflow:visible;"/>
					</clipPath>
					<g class="st9">
						<line class="st1" x1="843.6" y1="-298.4" x2="315.9" y2="229.3"/>
						<line class="st1" x1="850.6" y1="-298.4" x2="322.9" y2="229.3"/>
						<line class="st1" x1="857.6" y1="-298.4" x2="329.9" y2="229.3"/>
						<line class="st1" x1="864.6" y1="-298.4" x2="336.9" y2="229.3"/>
						<line class="st1" x1="871.5" y1="-298.4" x2="343.8" y2="229.3"/>
						<line class="st1" x1="878.5" y1="-298.4" x2="350.8" y2="229.3"/>
						<line class="st1" x1="885.5" y1="-298.4" x2="357.8" y2="229.3"/>
						<line class="st1" x1="892.5" y1="-298.4" x2="364.8" y2="229.3"/>
						<line class="st1" x1="899.4" y1="-298.4" x2="371.8" y2="229.3"/>
						<line class="st1" x1="906.4" y1="-298.4" x2="378.7" y2="229.3"/>
						<line class="st1" x1="913.4" y1="-298.4" x2="385.7" y2="229.3"/>
						<line class="st1" x1="920.4" y1="-298.4" x2="392.7" y2="229.3"/>
						<line class="st1" x1="927.4" y1="-298.4" x2="399.7" y2="229.3"/>
						<line class="st1" x1="934.3" y1="-298.4" x2="406.7" y2="229.3"/>
						<line class="st1" x1="941.3" y1="-298.4" x2="413.6" y2="229.3"/>
						<line class="st1" x1="948.3" y1="-298.4" x2="420.6" y2="229.3"/>
						<line class="st1" x1="955.3" y1="-298.4" x2="427.6" y2="229.3"/>
						<line class="st1" x1="962.3" y1="-298.4" x2="434.6" y2="229.3"/>
						<line class="st1" x1="969.2" y1="-298.4" x2="441.6" y2="229.3"/>
						<line class="st1" x1="976.2" y1="-298.4" x2="448.5" y2="229.3"/>
						<line class="st1" x1="983.2" y1="-298.4" x2="455.5" y2="229.3"/>
						<line class="st1" x1="990.2" y1="-298.4" x2="462.5" y2="229.3"/>
						<line class="st1" x1="997.2" y1="-298.4" x2="469.5" y2="229.3"/>
						<line class="st1" x1="1004.1" y1="-298.4" x2="476.4" y2="229.3"/>
						<line class="st1" x1="1011.1" y1="-298.4" x2="483.4" y2="229.3"/>
						<line class="st1" x1="1018.1" y1="-298.4" x2="490.4" y2="229.3"/>
						<line class="st1" x1="1025.1" y1="-298.4" x2="497.4" y2="229.3"/>
						<line class="st1" x1="1032.1" y1="-298.4" x2="504.4" y2="229.3"/>
						<line class="st1" x1="1039" y1="-298.4" x2="511.3" y2="229.3"/>
						<line class="st1" x1="1046" y1="-298.4" x2="518.3" y2="229.3"/>
						<line class="st1" x1="1053" y1="-298.4" x2="525.3" y2="229.3"/>
						<line class="st1" x1="1060" y1="-298.4" x2="532.3" y2="229.3"/>
						<line class="st1" x1="1066.9" y1="-298.4" x2="539.3" y2="229.3"/>
						<line class="st1" x1="1073.9" y1="-298.4" x2="546.2" y2="229.3"/>
						<line class="st1" x1="1080.9" y1="-298.4" x2="553.2" y2="229.3"/>
						<line class="st1" x1="1087.9" y1="-298.4" x2="560.2" y2="229.3"/>
						<line class="st1" x1="1094.9" y1="-298.4" x2="567.2" y2="229.3"/>
						<line class="st1" x1="1101.8" y1="-298.4" x2="574.2" y2="229.3"/>
						<line class="st1" x1="1108.8" y1="-298.4" x2="581.1" y2="229.3"/>
						<line class="st1" x1="1115.8" y1="-298.4" x2="588.1" y2="229.3"/>
						<line class="st1" x1="1122.8" y1="-298.4" x2="595.1" y2="229.3"/>
						<line class="st1" x1="1129.8" y1="-298.4" x2="602.1" y2="229.3"/>
						<line class="st1" x1="1136.7" y1="-298.4" x2="609.1" y2="229.3"/>
						<line class="st1" x1="1143.7" y1="-298.4" x2="616" y2="229.3"/>
						<line class="st1" x1="1150.7" y1="-298.4" x2="623" y2="229.3"/>
						<line class="st1" x1="1157.7" y1="-298.4" x2="630" y2="229.3"/>
						<line class="st1" x1="1164.7" y1="-298.4" x2="637" y2="229.3"/>
						<line class="st1" x1="1171.6" y1="-298.4" x2="644" y2="229.3"/>
						<line class="st1" x1="1178.6" y1="-298.4" x2="650.9" y2="229.3"/>
						<line class="st1" x1="1185.6" y1="-298.4" x2="657.9" y2="229.3"/>
						<line class="st1" x1="1192.6" y1="-298.4" x2="664.9" y2="229.3"/>
						<line class="st1" x1="1199.6" y1="-298.4" x2="671.9" y2="229.3"/>
						<line class="st1" x1="1206.5" y1="-298.4" x2="678.8" y2="229.3"/>
						<line class="st1" x1="1213.5" y1="-298.4" x2="685.8" y2="229.3"/>
						<line class="st1" x1="1220.5" y1="-298.4" x2="692.8" y2="229.3"/>
						<line class="st1" x1="1227.5" y1="-298.4" x2="699.8" y2="229.3"/>
						<line class="st1" x1="1234.5" y1="-298.4" x2="706.8" y2="229.3"/>
						<line class="st1" x1="1241.4" y1="-298.4" x2="713.7" y2="229.3"/>
						<line class="st1" x1="1248.4" y1="-298.4" x2="720.7" y2="229.3"/>
						<line class="st1" x1="1255.4" y1="-298.4" x2="727.7" y2="229.3"/>
						<line class="st1" x1="1262.4" y1="-298.4" x2="734.7" y2="229.3"/>
						<line class="st1" x1="1269.3" y1="-298.4" x2="741.7" y2="229.3"/>
						<line class="st1" x1="1276.3" y1="-298.4" x2="748.6" y2="229.3"/>
						<line class="st1" x1="1283.3" y1="-298.4" x2="755.6" y2="229.3"/>
						<line class="st1" x1="1290.3" y1="-298.4" x2="762.6" y2="229.3"/>
						<line class="st1" x1="1297.3" y1="-298.4" x2="769.6" y2="229.3"/>
						<line class="st1" x1="1304.2" y1="-298.4" x2="776.6" y2="229.3"/>
						<line class="st1" x1="1311.2" y1="-298.4" x2="783.5" y2="229.3"/>
						<line class="st1" x1="1318.2" y1="-298.4" x2="790.5" y2="229.3"/>
						<line class="st1" x1="1325.2" y1="-298.4" x2="797.5" y2="229.3"/>
						<line class="st1" x1="1332.2" y1="-298.4" x2="804.5" y2="229.3"/>
						<line class="st1" x1="1339.1" y1="-298.4" x2="811.5" y2="229.3"/>
						<line class="st1" x1="1346.1" y1="-298.4" x2="818.4" y2="229.3"/>
						<line class="st1" x1="1353.1" y1="-298.4" x2="825.4" y2="229.3"/>
						<line class="st1" x1="1360.1" y1="-298.4" x2="832.4" y2="229.3"/>
						<line class="st1" x1="1367.1" y1="-298.4" x2="839.4" y2="229.3"/>
						<line class="st1" x1="1374" y1="-298.4" x2="846.3" y2="229.3"/>
						<line class="st1" x1="1381" y1="-298.4" x2="853.3" y2="229.3"/>
						<line class="st1" x1="1388" y1="-298.4" x2="860.3" y2="229.3"/>
						<line class="st1" x1="1395" y1="-298.4" x2="867.3" y2="229.3"/>
						<line class="st1" x1="1402" y1="-298.4" x2="874.3" y2="229.3"/>
						<line class="st1" x1="1408.9" y1="-298.4" x2="881.2" y2="229.3"/>
						<line class="st1" x1="1415.9" y1="-298.4" x2="888.2" y2="229.3"/>
						<line class="st1" x1="1422.9" y1="-298.4" x2="895.2" y2="229.3"/>
						<line class="st1" x1="1429.9" y1="-298.4" x2="902.2" y2="229.3"/>
						<line class="st1" x1="1436.9" y1="-298.4" x2="909.2" y2="229.3"/>
						<line class="st1" x1="1443.8" y1="-298.4" x2="916.1" y2="229.3"/>
						<line class="st1" x1="1450.8" y1="-298.4" x2="923.1" y2="229.3"/>
						<line class="st1" x1="1457.8" y1="-298.4" x2="930.1" y2="229.3"/>
						<line class="st1" x1="1464.8" y1="-298.4" x2="937.1" y2="229.3"/>
						<line class="st1" x1="1471.7" y1="-298.4" x2="944.1" y2="229.3"/>
						<line class="st1" x1="1478.7" y1="-298.4" x2="951" y2="229.3"/>
						<line class="st1" x1="1485.7" y1="-298.4" x2="958" y2="229.3"/>
						<line class="st1" x1="1492.7" y1="-298.4" x2="965" y2="229.3"/>
						<line class="st1" x1="1499.7" y1="-298.4" x2="972" y2="229.3"/>
						<line class="st1" x1="1506.6" y1="-298.4" x2="979" y2="229.3"/>
						<line class="st1" x1="1513.6" y1="-298.4" x2="985.9" y2="229.3"/>
						<line class="st1" x1="1520.6" y1="-298.4" x2="992.9" y2="229.3"/>
						<line class="st1" x1="1527.6" y1="-298.4" x2="999.9" y2="229.3"/>
						<line class="st1" x1="1534.6" y1="-298.4" x2="1006.9" y2="229.3"/>
						<line class="st1" x1="1541.5" y1="-298.4" x2="1013.9" y2="229.3"/>
						<line class="st1" x1="1548.5" y1="-298.4" x2="1020.8" y2="229.3"/>
						<line class="st1" x1="1555.5" y1="-298.4" x2="1027.8" y2="229.3"/>
						<line class="st1" x1="1562.5" y1="-298.4" x2="1034.8" y2="229.3"/>
						<line class="st1" x1="1569.5" y1="-298.4" x2="1041.8" y2="229.3"/>
					</g>
				</g>
				<g class="st10">
					<defs>
						
							<ellipse id="SVGID_7_" transform="matrix(0.7071 -0.7071 0.7071 0.7071 -234.7331 1646.8975)" class="st10" cx="1870.6" cy="1106.8" rx="259.9" ry="259.9"/>
					</defs>
					<clipPath id="SVGID_8_">
						<use xlink:href="#SVGID_7_"  style="overflow:visible;"/>
					</clipPath>
					<g class="st11">
						<line class="st1" x1="1722.6" y1="850.2" x2="1194.9" y2="1377.9"/>
						<line class="st1" x1="1729.5" y1="850.2" x2="1201.8" y2="1377.9"/>
						<line class="st1" x1="1736.5" y1="850.2" x2="1208.8" y2="1377.9"/>
						<line class="st1" x1="1743.5" y1="850.2" x2="1215.8" y2="1377.9"/>
						<line class="st1" x1="1750.5" y1="850.2" x2="1222.8" y2="1377.9"/>
						<line class="st1" x1="1757.4" y1="850.2" x2="1229.8" y2="1377.9"/>
						<line class="st1" x1="1764.4" y1="850.2" x2="1236.7" y2="1377.9"/>
						<line class="st1" x1="1771.4" y1="850.2" x2="1243.7" y2="1377.9"/>
						<line class="st1" x1="1778.4" y1="850.2" x2="1250.7" y2="1377.9"/>
						<line class="st1" x1="1785.4" y1="850.2" x2="1257.7" y2="1377.9"/>
						<line class="st1" x1="1792.3" y1="850.2" x2="1264.7" y2="1377.9"/>
						<line class="st1" x1="1799.3" y1="850.2" x2="1271.6" y2="1377.9"/>
						<line class="st1" x1="1806.3" y1="850.2" x2="1278.6" y2="1377.9"/>
						<line class="st1" x1="1813.3" y1="850.2" x2="1285.6" y2="1377.9"/>
						<line class="st1" x1="1820.3" y1="850.2" x2="1292.6" y2="1377.9"/>
						<line class="st1" x1="1827.2" y1="850.2" x2="1299.6" y2="1377.9"/>
						<line class="st1" x1="1834.2" y1="850.2" x2="1306.5" y2="1377.9"/>
						<line class="st1" x1="1841.2" y1="850.2" x2="1313.5" y2="1377.9"/>
						<line class="st1" x1="1848.2" y1="850.2" x2="1320.5" y2="1377.9"/>
						<line class="st1" x1="1855.2" y1="850.2" x2="1327.5" y2="1377.9"/>
						<line class="st1" x1="1862.1" y1="850.2" x2="1334.4" y2="1377.9"/>
						<line class="st1" x1="1869.1" y1="850.2" x2="1341.4" y2="1377.9"/>
						<line class="st1" x1="1876.1" y1="850.2" x2="1348.4" y2="1377.9"/>
						<line class="st1" x1="1883.1" y1="850.2" x2="1355.4" y2="1377.9"/>
						<line class="st1" x1="1890.1" y1="850.2" x2="1362.4" y2="1377.9"/>
						<line class="st1" x1="1897" y1="850.2" x2="1369.3" y2="1377.9"/>
						<line class="st1" x1="1904" y1="850.2" x2="1376.3" y2="1377.9"/>
						<line class="st1" x1="1911" y1="850.2" x2="1383.3" y2="1377.9"/>
						<line class="st1" x1="1918" y1="850.2" x2="1390.3" y2="1377.9"/>
						<line class="st1" x1="1924.9" y1="850.2" x2="1397.3" y2="1377.9"/>
						<line class="st1" x1="1931.9" y1="850.2" x2="1404.2" y2="1377.9"/>
						<line class="st1" x1="1938.9" y1="850.2" x2="1411.2" y2="1377.9"/>
						<line class="st1" x1="1945.9" y1="850.2" x2="1418.2" y2="1377.9"/>
						<line class="st1" x1="1952.9" y1="850.2" x2="1425.2" y2="1377.9"/>
						<line class="st1" x1="1959.8" y1="850.2" x2="1432.2" y2="1377.9"/>
						<line class="st1" x1="1966.8" y1="850.2" x2="1439.1" y2="1377.9"/>
						<line class="st1" x1="1973.8" y1="850.2" x2="1446.1" y2="1377.9"/>
						<line class="st1" x1="1980.8" y1="850.2" x2="1453.1" y2="1377.9"/>
						<line class="st1" x1="1987.8" y1="850.2" x2="1460.1" y2="1377.9"/>
						<line class="st1" x1="1994.7" y1="850.2" x2="1467.1" y2="1377.9"/>
						<line class="st1" x1="2001.7" y1="850.2" x2="1474" y2="1377.9"/>
						<line class="st1" x1="2008.7" y1="850.2" x2="1481" y2="1377.9"/>
						<line class="st1" x1="2015.7" y1="850.2" x2="1488" y2="1377.9"/>
						<line class="st1" x1="2022.7" y1="850.2" x2="1495" y2="1377.9"/>
						<line class="st1" x1="2029.6" y1="850.2" x2="1501.9" y2="1377.9"/>
						<line class="st1" x1="2036.6" y1="850.2" x2="1508.9" y2="1377.9"/>
						<line class="st1" x1="2043.6" y1="850.2" x2="1515.9" y2="1377.9"/>
						<line class="st1" x1="2050.6" y1="850.2" x2="1522.9" y2="1377.9"/>
						<line class="st1" x1="2057.6" y1="850.2" x2="1529.9" y2="1377.9"/>
						<line class="st1" x1="2064.5" y1="850.2" x2="1536.8" y2="1377.9"/>
						<line class="st1" x1="2071.5" y1="850.2" x2="1543.8" y2="1377.9"/>
						<line class="st1" x1="2078.5" y1="850.2" x2="1550.8" y2="1377.9"/>
						<line class="st1" x1="2085.5" y1="850.2" x2="1557.8" y2="1377.9"/>
						<line class="st1" x1="2092.5" y1="850.2" x2="1564.8" y2="1377.9"/>
						<line class="st1" x1="2099.4" y1="850.2" x2="1571.7" y2="1377.9"/>
						<line class="st1" x1="2106.4" y1="850.2" x2="1578.7" y2="1377.9"/>
						<line class="st1" x1="2113.4" y1="850.2" x2="1585.7" y2="1377.9"/>
						<line class="st1" x1="2120.4" y1="850.2" x2="1592.7" y2="1377.9"/>
						<line class="st1" x1="2127.3" y1="850.2" x2="1599.7" y2="1377.9"/>
						<line class="st1" x1="2134.3" y1="850.2" x2="1606.6" y2="1377.9"/>
						<line class="st1" x1="2141.3" y1="850.2" x2="1613.6" y2="1377.9"/>
						<line class="st1" x1="2148.3" y1="850.2" x2="1620.6" y2="1377.9"/>
						<line class="st1" x1="2155.3" y1="850.2" x2="1627.6" y2="1377.9"/>
						<line class="st1" x1="2162.2" y1="850.2" x2="1634.6" y2="1377.9"/>
						<line class="st1" x1="2169.2" y1="850.2" x2="1641.5" y2="1377.9"/>
						<line class="st1" x1="2176.2" y1="850.2" x2="1648.5" y2="1377.9"/>
						<line class="st1" x1="2183.2" y1="850.2" x2="1655.5" y2="1377.9"/>
						<line class="st1" x1="2190.2" y1="850.2" x2="1662.5" y2="1377.9"/>
						<line class="st1" x1="2197.1" y1="850.2" x2="1669.5" y2="1377.9"/>
						<line class="st1" x1="2204.1" y1="850.2" x2="1676.4" y2="1377.9"/>
						<line class="st1" x1="2211.1" y1="850.2" x2="1683.4" y2="1377.9"/>
						<line class="st1" x1="2218.1" y1="850.2" x2="1690.4" y2="1377.9"/>
						<line class="st1" x1="2225.1" y1="850.2" x2="1697.4" y2="1377.9"/>
						<line class="st1" x1="2232" y1="850.2" x2="1704.3" y2="1377.9"/>
						<line class="st1" x1="2239" y1="850.2" x2="1711.3" y2="1377.9"/>
						<line class="st1" x1="2246" y1="850.2" x2="1718.3" y2="1377.9"/>
						<line class="st1" x1="2253" y1="850.2" x2="1725.3" y2="1377.9"/>
						<line class="st1" x1="2260" y1="850.2" x2="1732.3" y2="1377.9"/>
						<line class="st1" x1="2266.9" y1="850.2" x2="1739.2" y2="1377.9"/>
						<line class="st1" x1="2273.9" y1="850.2" x2="1746.2" y2="1377.9"/>
						<line class="st1" x1="2280.9" y1="850.2" x2="1753.2" y2="1377.9"/>
						<line class="st1" x1="2287.9" y1="850.2" x2="1760.2" y2="1377.9"/>
						<line class="st1" x1="2294.8" y1="850.2" x2="1767.2" y2="1377.9"/>
						<line class="st1" x1="2301.8" y1="850.2" x2="1774.1" y2="1377.9"/>
						<line class="st1" x1="2308.8" y1="850.2" x2="1781.1" y2="1377.9"/>
						<line class="st1" x1="2315.8" y1="850.2" x2="1788.1" y2="1377.9"/>
						<line class="st1" x1="2322.8" y1="850.2" x2="1795.1" y2="1377.9"/>
						<line class="st1" x1="2329.7" y1="850.2" x2="1802.1" y2="1377.9"/>
						<line class="st1" x1="2336.7" y1="850.2" x2="1809" y2="1377.9"/>
						<line class="st1" x1="2343.7" y1="850.2" x2="1816" y2="1377.9"/>
						<line class="st1" x1="2350.7" y1="850.2" x2="1823" y2="1377.9"/>
						<line class="st1" x1="2357.7" y1="850.2" x2="1830" y2="1377.9"/>
						<line class="st1" x1="2364.6" y1="850.2" x2="1837" y2="1377.9"/>
						<line class="st1" x1="2371.6" y1="850.2" x2="1843.9" y2="1377.9"/>
						<line class="st1" x1="2378.6" y1="850.2" x2="1850.9" y2="1377.9"/>
						<line class="st1" x1="2385.6" y1="850.2" x2="1857.9" y2="1377.9"/>
						<line class="st1" x1="2392.6" y1="850.2" x2="1864.9" y2="1377.9"/>
						<line class="st1" x1="2399.5" y1="850.2" x2="1871.8" y2="1377.9"/>
						<line class="st1" x1="2406.5" y1="850.2" x2="1878.8" y2="1377.9"/>
						<line class="st1" x1="2413.5" y1="850.2" x2="1885.8" y2="1377.9"/>
						<line class="st1" x1="2420.5" y1="850.2" x2="1892.8" y2="1377.9"/>
						<line class="st1" x1="2427.5" y1="850.2" x2="1899.8" y2="1377.9"/>
						<line class="st1" x1="2434.4" y1="850.2" x2="1906.7" y2="1377.9"/>
						<line class="st1" x1="2441.4" y1="850.2" x2="1913.7" y2="1377.9"/>
						<line class="st1" x1="2448.4" y1="850.2" x2="1920.7" y2="1377.9"/>
					</g>
				</g>
				<polygon class="st1" points="1821.1,562.9 1821.1,601.8 1854.8,582.3 				"/>
				<polygon class="st1" points="1561.2,192 1540.5,159 1522.3,193.4 				"/>
				<polygon class="st1" points="1613.8,898.1 1593.2,865.1 1575,899.4 				"/>
			</g>
		</g>
	</g>
</g>
</svg>
